<svg aria-hidden="true" style="width:0;height:0;position:absolute;overflow:hidden" xmlns="http://www.w3.org/2000/svg"><defs><symbol id="icon-location" viewBox="0 0 32 32"><path fill="#313ef7" style="fill:var(--color1,#313ef7)" opacity=".05" d="M32 16c0 8.837-7.163 16-16 16S0 24.837 0 16 7.163 0 16 0s16 7.163 16 16z"/><path fill="none" stroke="#030522" style="stroke:var(--color2,#030522)" stroke-width=".857" d="M15.999 16.818a1.783 1.783 0 1 0 0-3.566 1.783 1.783 0 1 0 0 3.566z"/><path fill="none" stroke="#030522" style="stroke:var(--color2,#030522)" stroke-width=".857" d="M11.213 13.994c1.126-4.949 8.457-4.943 9.577.006.657 2.903-1.149 5.36-2.731 6.88-.533.515-1.259.832-2.06.832s-1.527-.317-2.061-.832l.001.001c-1.577-1.52-3.383-3.983-2.726-6.886z"/></symbol><symbol id="icon-lock" viewBox="0 0 32 32"><path d="M15 21.915a1.5 1.5 0 1 1 1 0v2.594a.501.501 0 0 1-1 0v-2.594zm-1 .585v1.998a1.5 1.5 0 1 0 3 0V22.5a2.5 2.5 0 1 0-3 0zM8 14v-3.501A7.499 7.499 0 0 1 15.5 3c4.134 0 7.5 3.358 7.5 7.499V14c1.659.005 3 1.35 3 3.009v9.981a3.002 3.002 0 0 1-3.009 3.009H8.009A3.008 3.008 0 0 1 5 26.99v-9.981A3.001 3.001 0 0 1 8 14zm1 0h1v-3.491A5.5 5.5 0 0 1 15.5 5c3.031 0 5.5 2.466 5.5 5.509V14h1v-3.507C22 6.907 19.083 4 15.5 4 11.91 4 9 6.908 9 10.493V14zm2 0h9v-3.499A4.504 4.504 0 0 0 15.5 6a4.497 4.497 0 0 0-4.5 4.501V14zm-3.003 1A2 2 0 0 0 6 17.006v9.988A2 2 0 0 0 7.997 29h15.005a2 2 0 0 0 1.997-2.006v-9.988A2 2 0 0 0 23.002 15H7.997z"/></symbol><symbol id="icon-right" viewBox="0 0 24 24"><path d="m9.707 18.707 6-6a.999.999 0 0 0 0-1.414l-6-6a.999.999 0 1 0-1.414 1.414L13.586 12l-5.293 5.293a.999.999 0 1 0 1.414 1.414z"/></symbol><symbol id="icon-travelars" viewBox="0 0 32 32"><path fill="#313ef7" style="fill:var(--color1,#313ef7)" opacity=".05" d="M32 16c0 8.837-7.163 16-16 16S0 24.837 0 16 7.163 0 16 0s16 7.163 16 16z"/><path fill="none" stroke="#030522" style="stroke:var(--color2,#030522)" stroke-linejoin="round" stroke-linecap="round" stroke-width=".857" d="M16.388 11.406a2.534 2.534 0 0 1-2.012 3.948.994.994 0 0 0-.189 0 2.526 2.526 0 0 1-2.44-2.524v-.008 0c0-1.4 1.131-2.537 2.537-2.537m4.237 1.144c1.109 0 2 .897 2 2 0 1.08-.857 1.96-1.926 2a.57.57 0 0 0-.151.001h.003m-6.928 2.033c-1.383.926-1.383 2.434 0 3.354 1.571 1.051 4.149 1.051 5.72 0 1.383-.926 1.383-2.434 0-3.354-1.566-1.046-4.143-1.046-5.72 0zm8.104 3.108c.411-.086.8-.251 1.12-.497.891-.669.891-1.771 0-2.44-.314-.24-.697-.4-1.103-.491"/></symbol><symbol id="icon-twitter" viewBox="0 0 41 32"><path d="M40.471 3.704c-1.359.575-2.937 1-4.584 1.198l-.084.008c1.679-.945 2.961-2.432 3.563-4.224a16.456 16.456 0 0 1-5.034 1.834l-.105.017A8.33 8.33 0 0 0 28.345.116h-.036.002c-4.488 0-8.1 3.435-8.1 7.648 0 .604.056 1.186.188 1.743-6.741-.311-12.7-3.356-16.706-7.996a7.287 7.287 0 0 0-1.111 3.863v.001c0 2.647 1.448 4.994 3.601 6.351a8.35 8.35 0 0 1-3.707-.963l.046.022v.085c0 3.714 2.808 6.799 6.494 7.511a8.623 8.623 0 0 1-2.127.252c-.518 0-1.041-.028-1.534-.132 1.05 3.029 4.03 5.252 7.573 5.327a16.79 16.79 0 0 1-9.981 3.258h-.07.004c-.664 0-1.301-.026-1.939-.104 3.59 2.184 7.844 3.43 12.431 3.43 14.914 0 23.066-11.652 23.066-21.752 0-.339-.013-.664-.03-.988a15.845 15.845 0 0 0 4.03-3.92l.032-.048z"/></symbol><symbol id="icon-arrow" viewBox="0 0 41 32"><path fill="#fff" style="fill:var(--color3,#fff)" d="M40.509 16.823c.276-.276.446-.657.446-1.077s-.17-.802-.446-1.077l-9.698-9.698a1.524 1.524 0 0 0-2.155 2.155l8.62 8.62-8.62 8.62a1.524 1.524 0 0 0 2.155 2.155l9.698-9.698zm-1.077-2.601H.642v3.048h38.79v-3.048z"/></symbol><symbol id="icon-check-in-out" viewBox="0 0 32 32"><path fill="#313ef7" style="fill:var(--color1,#313ef7)" opacity=".05" d="M32 16c0 8.837-7.163 16-16 16S0 24.837 0 16 7.163 0 16 0s16 7.163 16 16z"/><path fill="none" stroke="#030522" style="stroke:var(--color2,#030522)" stroke-linejoin="round" stroke-linecap="round" stroke-miterlimit="10" stroke-width=".857" d="M13.714 10.286V12m4.572-1.714V12m-7.143 2.337h9.714m-10 2.24V14c0-1.714.857-2.857 2.857-2.857h4.571c2 0 2.857 1.143 2.857 2.857v4.857c0 1.714-.857 2.857-2.857 2.857h-4.571c-2 0-2.857-1.143-2.857-2.857"/><path fill="none" stroke="#030522" style="stroke:var(--color2,#030522)" stroke-linejoin="round" stroke-linecap="round" stroke-width="1.143" d="M15.997 16.971h.006m-2.12 0h.005m-.005 1.715h.005"/></symbol><symbol id="icon-customer-service" viewBox="0 0 33 32"><path d="M30.374 13.322c-.639-.394-1.35-.475-1.978-.414v-.658C28.396 5.512 22.882 0 16.146 0 9.408 0 3.895 5.514 3.895 12.25v.658c-.627-.062-1.338.019-1.977.414-1.176.727-1.773 2.259-1.773 4.552 0 2.298.598 3.838 1.776 4.578.585.367 1.269.494 1.974.434v.677c0 .518.42.938.938.938h3.75c.518 0 .937-.42.937-.938V12.251a.937.937 0 0 0-.937-.938h-2.77c.476-5.283 4.928-9.438 10.333-9.438s9.856 4.154 10.332 9.438h-2.77a.937.937 0 0 0-.938.937v11.313c0 .518.42.938.938.938h2.813v.938a2.816 2.816 0 0 1-2.813 2.812H20.67a2.821 2.821 0 0 0-2.651-1.874h-1.875a2.817 2.817 0 0 0-2.813 2.812 2.817 2.817 0 0 0 2.813 2.813h1.875a2.817 2.817 0 0 0 2.651-1.875h3.037a4.693 4.693 0 0 0 4.688-4.688v-2.551c.704.061 1.388-.066 1.974-.434 1.178-.74 1.776-2.28 1.776-4.577 0-2.294-.597-3.826-1.773-4.552zM3.896 21c-.299.052-.673.056-.978-.136-.578-.363-.898-1.424-.898-2.988 0-1.55.312-2.598.878-2.954.306-.192.691-.179.998-.118v6.195zm3.75-7.812v9.438H5.772v-9.438h1.875zm10.376 16.938h-1.875a.939.939 0 0 1-.938-.938.94.94 0 0 1 .938-.938h1.874a.939.939 0 0 1 0 1.876zm8.5-7.5h-1.875v-9.438h1.875v9.438zm2.859-1.766c-.304.194-.682.19-.984.137v-6.192c.306-.062.691-.075.997.118.566.355.878 1.404.878 2.954 0 1.558-.317 2.618-.89 2.984z"/></symbol><symbol id="icon-discount" viewBox="0 0 33 32"><path d="M30.622 16.414a.941.941 0 0 1 .002-.834l-.002.005 1.194-2.442a2.779 2.779 0 0 0-1.198-3.689l-2.4-1.274a.939.939 0 0 1-.487-.665l-.001-.006-.47-2.677a2.783 2.783 0 0 0-3.152-2.278l.015-.002-2.691.38a.925.925 0 0 1-.788-.256L18.69.786c-.5-.488-1.184-.789-1.939-.789s-1.439.301-1.94.79l.001-.001-1.954 1.89a.938.938 0 0 1-.793.256l.005.001-2.691-.38a2.778 2.778 0 0 0-3.135 2.263l-.002.017-.47 2.677a.935.935 0 0 1-.487.67l-2.4 1.274a2.784 2.784 0 0 0-1.192 3.705l-.007-.016 1.194 2.442a.943.943 0 0 1 0 .829l-1.194 2.442a2.779 2.779 0 0 0 1.184 3.682l.015.007 2.401 1.274a.94.94 0 0 1 .488.67l.469 2.677a2.78 2.78 0 0 0 3.152 2.278l-.015.002 2.691-.381a.933.933 0 0 1 .788.256l1.954 1.89c.5.487 1.185.788 1.939.788s1.439-.301 1.94-.789l-.001.001 1.954-1.89a.936.936 0 0 1 .788-.256l2.691.381a2.778 2.778 0 0 0 3.135-2.263l.002-.017.47-2.677a.93.93 0 0 1 .488-.67l2.4-1.274a2.781 2.781 0 0 0 1.191-3.704l.007.016-1.194-2.442zm-.869 4.5-2.401 1.274a2.784 2.784 0 0 0-1.438 1.966l-.002.017-.47 2.677a.942.942 0 0 1-1.066.771l.005.001-2.691-.381a2.761 2.761 0 0 0-2.33.759l.001-.001-1.954 1.89a.941.941 0 0 1-1.312 0l-1.954-1.89a2.76 2.76 0 0 0-2.345-.756l.015-.002-2.691.381a.94.94 0 0 1-1.061-.765l-.001-.006-.47-2.677a2.78 2.78 0 0 0-1.425-1.975l-.015-.007-2.4-1.274a.943.943 0 0 1-.404-1.253l-.002.005 1.194-2.442c.18-.357.285-.779.285-1.225s-.105-.867-.293-1.241l.007.016-1.194-2.442a.94.94 0 0 1 .401-1.246l.005-.002 2.401-1.274a2.784 2.784 0 0 0 1.438-1.966l.002-.017.47-2.677a.94.94 0 0 1 1.062-.771l2.691.381a2.766 2.766 0 0 0 2.33-.757l-.001.001 1.954-1.89a.937.937 0 0 1 1.312 0l1.954 1.89a2.761 2.761 0 0 0 2.345.755l-.015.002 2.691-.381a.94.94 0 0 1 1.061.765l.001.006.47 2.677a2.78 2.78 0 0 0 1.425 1.975l.015.007 2.4 1.274a.94.94 0 0 1 .406 1.248l-1.194 2.442c-.18.357-.285.779-.285 1.225s.105.867.293 1.241l-.007-.016 1.194 2.442a.94.94 0 0 1-.406 1.248z"/><path d="M23.494 9.257a.923.923 0 0 0-1.305 0L10.007 21.438a.923.923 0 0 0 1.305 1.305h-.001l12.181-12.18a.925.925 0 0 0 0-1.306zM13.06 7.694a3.388 3.388 0 0 0-3.384 3.384 3.388 3.388 0 0 0 3.384 3.384 3.388 3.388 0 0 0 3.384-3.384 3.388 3.388 0 0 0-3.384-3.384zm0 4.922a1.54 1.54 0 0 1-1.538-1.537c0-.848.69-1.538 1.538-1.538s1.538.69 1.538 1.538-.69 1.538-1.538 1.538zm7.382 4.922a3.388 3.388 0 0 0-3.384 3.384 3.388 3.388 0 0 0 3.384 3.384 3.388 3.388 0 0 0 3.384-3.384 3.388 3.388 0 0 0-3.384-3.384zm0 4.921a1.54 1.54 0 0 1-1.538-1.537c0-.848.69-1.538 1.538-1.538s1.538.69 1.538 1.538-.69 1.538-1.538 1.538z"/></symbol><symbol id="icon-facebook" viewBox="0 0 19 32"><path d="M11.919 30.249V15.341h4.499l.595-5.246h-5.094l.008-2.628c0-1.368.139-2.101 2.242-2.101h2.812V.118h-4.499c-5.402 0-7.304 2.545-7.304 6.825v3.151H1.807v5.246h3.369v14.697c1.219.238 2.621.374 4.054.374.946 0 1.879-.059 2.794-.174l-.109.011z"/></symbol><symbol id="icon-gude" viewBox="0 0 33 32"><path d="M26.059 27.322a.63.63 0 0 1-.612-.5l-.001-.004a.623.623 0 0 1 .486-.733l.004-.001a.62.62 0 0 1 .471.095l-.002-.001a.61.61 0 0 1 .229.276l.001.004a.626.626 0 0 1-.135.681.59.59 0 0 1-.199.135l-.004.001a.609.609 0 0 1-.238.048zm-8.717-7.326h-1.736a.624.624 0 0 1-.611-.752l-.001.004.584-2.913h-2.664l-.868.723a.619.619 0 0 1-.399.144H9.91a.624.624 0 0 1-.578-.86l-.002.004.775-1.938-.775-1.937a.626.626 0 0 1 .58-.858h1.736c.153 0 .292.055.401.146l-.001-.001.867.723h2.664l-.584-2.913a.625.625 0 0 1 .613-.748h1.735c.217 0 .418.112.532.297l2.076 3.364h2.166a1.928 1.928 0 0 1 1.926 1.926 1.929 1.929 0 0 1-1.927 1.927h-2.165l-2.076 3.364a.626.626 0 0 1-.532.297zm-.972-1.25h.624l2.076-3.363a.627.627 0 0 1 .532-.298h2.514a.678.678 0 0 0 .002-1.354H19.601a.626.626 0 0 1-.53-.293l-.002-.003-2.076-3.365h-.624l.584 2.913a.626.626 0 0 1-.612.749h-3.654a.622.622 0 0 1-.401-.146l.001.001-.868-.723h-.586l.525 1.312a.619.619 0 0 1-.001.468l.002-.004-.525 1.313h.586l.868-.722a.627.627 0 0 1 .4-.146h3.654a.626.626 0 0 1 .611.752l.001-.004-.584 2.914zm6.932 8.232H10.023a.625.625 0 0 1-.625-.624V22.51c0-.346.28-.626.625-.626h13.279c.345 0 .625.28.625.626v3.843c0 .346-.28.625-.625.625zm-12.654-1.25h12.03v-2.594h-12.03v2.594z"/><path d="M29.186 1.25h-2.502V.624a.625.625 0 0 0-.625-.625H5.914a2.452 2.452 0 0 0-2.45 2.449v27.101a2.452 2.452 0 0 0 2.449 2.45h23.272c.346 0 .626-.28.626-.625v-29.5a.625.625 0 0 0-.625-.625h-.001zm-3.752 0v7.522l-1.761-.83a.611.611 0 0 0-.536.001l.004-.002-1.766.832V1.248h4.061zm3.128 29.5H7.891V5.396a.625.625 0 0 0-1.25 0v25.355h-.728a1.2 1.2 0 0 1-1.199-1.199V2.45c0-.662.538-1.2 1.2-1.2h14.21v8.509a.625.625 0 0 0 .895.564l-.004.002 2.39-1.126 2.029.957v13.509a.625.625 0 0 0 1.25 0V2.502h1.877v28.25z"/></symbol><symbol id="icon-left" viewBox="0 0 24 24"><path d="M15.707 17.293 10.414 12l5.293-5.293a.999.999 0 1 0-1.414-1.414l-6 6a.999.999 0 0 0 0 1.414l6 6a.999.999 0 1 0 1.414-1.414z"/></symbol><symbol id="icon-linkedin" viewBox="0 0 34 32"><path d="M1.739 3.637c0-1.02.358-1.862 1.079-2.524C3.537.45 4.473.119 5.623.119c1.129 0 2.044.326 2.743.979.719.672 1.079 1.549 1.079 2.632 0 .979-.35 1.796-1.048 2.447-.719.674-1.664 1.011-2.835 1.011h-.03c-1.129 0-2.044-.337-2.744-1.011-.696-.672-1.047-1.519-1.047-2.539zm.401 26.776V9.971h6.839v20.442H2.14zm10.632 0h6.842V18.998c0-.715.081-1.265.245-1.653a4.46 4.46 0 0 1 1.31-1.76c.585-.478 1.321-.719 2.204-.719 2.302 0 3.452 1.542 3.452 4.621v10.925h6.84v-11.72c0-3.019-.719-5.31-2.157-6.871-1.438-1.562-3.337-2.342-5.702-2.342-2.65 0-4.715 1.133-6.193 3.398v.06h-.032l.032-.06V9.969h-6.842c.041.653.062 2.682.062 6.089s-.021 8.192-.062 14.353z"/></symbol><symbol id="icon-checkbox" viewBox="0 0 34 32"><path d="M30.341 3.556v24.889H3.793V3.556h26.548zm0-3.556H3.793C1.707 0 0 1.6 0 3.556v24.889c0 1.956 1.707 3.556 3.793 3.556h26.548c2.086 0 3.793-1.6 3.793-3.556V3.556C34.134 1.6 32.427 0 30.341 0z"/></symbol><symbol id="icon-check" viewBox="0 0 34 32"><path fill="#fff" style="fill:var(--color3,#fff);stroke:var(--color3,#fff)" stroke="#fff" stroke-width=".427" d="m8.442 16.537-.147-.14-2.205 2.088 7.767 7.41 16.318-15.567-2.19-2.089-14.128 13.465-5.416-5.167z"/></symbol><symbol id="icon-logo" viewBox="0 0 32 32"><path fill="#fff" style="fill:var(--color1,#fff)" d="M7.309 0a7.307 7.307 0 0 1 0 14.614A7.307 7.307 0 0 1 7.309 0zm7.305 24.694a7.306 7.306 0 1 1-7.306-7.306c5.566-.001 10.079-4.513 10.079-10.079a7.305 7.305 0 1 1 7.307 7.306c-5.566.001-10.078 4.513-10.078 10.079h-.002zM24.694 32a7.307 7.307 0 0 1 0-14.614 7.307 7.307 0 0 1 0 14.614zm0-5.104a2.203 2.203 0 1 0 0-4.406 2.203 2.203 0 1 0 0 4.406zm-17.385 0a2.202 2.202 0 0 0 0-4.404 2.202 2.202 0 0 0 0 4.404zM24.693 9.509a2.203 2.203 0 1 0 0-4.406 2.203 2.203 0 1 0 0 4.406zm-17.384 0a2.202 2.202 0 0 0 0-4.404 2.202 2.202 0 0 0 0 4.404z"/></symbol></defs></svg>