<svg xmlns="http://www.w3.org/2000/svg" width="96" height="97" fill="none"><g filter="url(#a)"><ellipse cx="48" cy="42.11" fill="#fff" rx="21" ry="20.923"/></g><path fill="#17181C" d="M39.924 35.932c0-.542.19-.989.573-1.341.382-.352.879-.529 1.49-.529.6 0 1.086.174 1.457.52.382.358.573.824.573 1.399 0 .52-.186.954-.557 1.3-.382.358-.884.537-1.506.537h-.016c-.6 0-1.086-.179-1.458-.537-.37-.357-.556-.807-.556-1.349Zm.213 14.225v-10.86h3.634v10.86h-3.634Zm5.648 0h3.635v-6.064c0-.38.043-.672.13-.878.153-.368.385-.68.697-.935.31-.254.7-.382 1.17-.382 1.222 0 1.834.819 1.834 2.455v5.804h3.634v-6.226c0-1.604-.382-2.821-1.146-3.65-.764-.83-1.773-1.244-3.028-1.244-1.408 0-2.505.602-3.291 1.805v.032h-.017l.017-.032v-1.545h-3.635c.022.347.033 1.425.033 3.235 0 1.81-.011 4.352-.033 7.625Z"/><defs><filter id="a" width="96" height="95.846" x="0" y=".188" color-interpolation-filters="sRGB" filterUnits="userSpaceOnUse"><feFlood flood-opacity="0" result="BackgroundImageFix"/><feColorMatrix in="SourceAlpha" result="hardAlpha" values="0 0 0 0 0 0 0 0 0 0 0 0 0 0 0 0 0 0 127 0"/><feOffset dy="6"/><feGaussianBlur stdDeviation="13.5"/><feComposite in2="hardAlpha" operator="out"/><feColorMatrix values="0 0 0 0 0.192031 0 0 0 0 0.192031 0 0 0 0 0.192031 0 0 0 0.17 0"/><feBlend in2="BackgroundImageFix" result="effect1_dropShadow_2_13548"/><feBlend in="SourceGraphic" in2="effect1_dropShadow_2_13548" result="shape"/></filter></defs></svg>