<svg xmlns="http://www.w3.org/2000/svg" width="120" height="16" fill="none"><path fill="#fff" d="M4.588 7.354h7.106v3.366H4.588V7.354ZM4.896 16H.54V.6h12.078v3.366H4.896V16Zm14.245 0V4.054h-4.73V.6h13.794v3.454h-4.708V16H19.14Zm19.289 0V.6h7.04c1.408 0 2.618.227 3.63.682 1.026.455 1.819 1.115 2.376 1.98.557.85.836 1.863.836 3.036 0 1.159-.279 2.163-.836 3.014-.557.85-1.35 1.51-2.376 1.98-1.012.455-2.222.682-3.63.682h-4.62l1.936-1.892V16H38.43Zm4.356-5.456L40.85 8.542h4.356c.91 0 1.584-.198 2.024-.594.455-.396.682-.946.682-1.65 0-.719-.227-1.276-.682-1.672-.44-.396-1.115-.594-2.024-.594H40.85l1.936-2.002v8.514ZM55.536 16V.6h4.356v11.946h7.348V16H55.536Zm12.83 0L75.164.6h4.29l6.82 15.4h-4.532L76.418 2.734h1.716L72.81 16h-4.444Zm3.718-2.992 1.122-3.212h7.524l1.122 3.212h-9.768ZM88.609 16V.6h3.586l8.492 10.252h-1.694V.6h4.268V16h-3.586L91.183 5.748h1.694V16h-4.268Zm22.828-9.438h7.15v3.256h-7.15V6.562Zm.308 6.072h8.052V16h-12.364V.6h12.078v3.366h-7.766v8.668Z"/></svg>