<svg xmlns="http://www.w3.org/2000/svg" width="34" height="34" fill="none"><path fill="#fff" d="M7.766 0a7.764 7.764 0 1 1 0 15.528A7.764 7.764 0 0 1 7.766 0Zm7.761 26.237a7.763 7.763 0 1 1-7.763-7.763A10.71 10.71 0 0 0 18.473 7.765a7.762 7.762 0 1 1 7.764 7.763 10.71 10.71 0 0 0-10.708 10.709h-.002ZM26.237 34a7.764 7.764 0 1 1 0-15.528 7.764 7.764 0 0 1 0 15.528Zm0-5.423a2.34 2.34 0 1 0 0-4.681 2.34 2.34 0 0 0 0 4.681Zm-18.471 0a2.34 2.34 0 1 0 0-4.68 2.34 2.34 0 0 0 0 4.68Zm18.47-18.474a2.34 2.34 0 1 0 0-4.681 2.34 2.34 0 0 0 0 4.681Zm-18.47 0a2.34 2.34 0 1 0 0-4.68 2.34 2.34 0 0 0 0 4.68Z"/></svg>