<svg aria-hidden="true" style="position: absolute; width: 0; height: 0; overflow: hidden;" version="1.1" xmlns="http://www.w3.org/2000/svg" xmlns:xlink="http://www.w3.org/1999/xlink">
<defs>
<symbol id="icon-location" viewBox="0 0 32 32">
<path fill="#313ef7" style="fill: var(--color1, #313ef7)" opacity="0.05" d="M32 16c0 8.837-7.163 16-16 16s-16-7.163-16-16c0-8.837 7.163-16 16-16s16 7.163 16 16z"></path>
<path fill="none" stroke="#030522" style="stroke: var(--color2, #030522)" stroke-linejoin="miter" stroke-linecap="butt" stroke-miterlimit="4" stroke-width="0.8571" d="M15.999 16.818c0.985 0 1.783-0.798 1.783-1.783s-0.798-1.783-1.783-1.783v0c-0.985 0-1.783 0.798-1.783 1.783s0.798 1.783 1.783 1.783v0z"></path>
<path fill="none" stroke="#030522" style="stroke: var(--color2, #030522)" stroke-linejoin="miter" stroke-linecap="butt" stroke-miterlimit="4" stroke-width="0.8571" d="M11.213 13.994c1.126-4.949 8.457-4.943 9.577 0.006 0.657 2.903-1.149 5.36-2.731 6.88-0.533 0.515-1.259 0.832-2.060 0.832s-1.527-0.317-2.061-0.832l0.001 0.001c-1.577-1.52-3.383-3.983-2.726-6.886z"></path></symbol>
<symbol id="icon-lock" viewBox="0 0 32 32">
<path d="M15 21.915v0 0c-0.583-0.206-1-0.762-1-1.415 0-0.828 0.672-1.5 1.5-1.5s1.5 0.672 1.5 1.5c0 0.653-0.417 1.209-1 1.415v2.594c0 0.263-0.224 0.491-0.5 0.491-0.268 0-0.5-0.22-0.5-0.491v-2.594zM14 22.5v1.998c0 0.829 0.666 1.502 1.5 1.502 0.828 0 1.5-0.671 1.5-1.502v-1.998c0.607-0.456 1-1.182 1-2 0-1.381-1.119-2.5-2.5-2.5s-2.5 1.119-2.5 2.5c0 0.818 0.393 1.544 1 2v0 0zM8 14v-3.501c0-4.143 3.358-7.499 7.5-7.499 4.134 0 7.5 3.358 7.5 7.499v3.501c1.659 0.005 3 1.35 3 3.009v9.981c0 1.673-1.347 3.009-3.009 3.009h-14.982c-1.663 0-3.009-1.347-3.009-3.009v-9.981c0-1.67 1.342-3.005 3-3.009v0 0zM9 14h1v-3.491c0-3.048 2.462-5.509 5.5-5.509 3.031 0 5.5 2.466 5.5 5.509v3.491h1v-3.507c0-3.586-2.917-6.493-6.5-6.493-3.59 0-6.5 2.908-6.5 6.493v3.507zM11 14h9v-3.499c0-2.486-2.020-4.501-4.5-4.501-2.485 0-4.5 2.009-4.5 4.501v3.499zM7.997 15c-1.103 0-1.997 0.897-1.997 2.006v9.988c0 1.108 0.891 2.006 1.997 2.006h15.005c1.103 0 1.997-0.897 1.997-2.006v-9.988c0-1.108-0.891-2.006-1.997-2.006h-15.005z"></path>
</symbol>
<symbol id="icon-right" viewBox="0 0 19 32">
<path fill="none" stroke="#fff" style="stroke: var(--color3, #fff)" stroke-linejoin="miter" stroke-linecap="butt" stroke-miterlimit="4" stroke-width="2.9091" d="M1.334 30.545l14.545-14.545-14.545-14.545"></path>
</symbol>
<symbol id="icon-travelars" viewBox="0 0 32 32">
<path fill="#313ef7" style="fill: var(--color1, #313ef7)" opacity="0.05" d="M32 16c0 8.837-7.163 16-16 16s-16-7.163-16-16c0-8.837 7.163-16 16-16s16 7.163 16 16z"></path>
<path fill="none" stroke="#030522" style="stroke: var(--color2, #030522)" stroke-linejoin="round" stroke-linecap="round" stroke-miterlimit="4" stroke-width="0.8571" d="M16.388 11.406c0.274 0.406 0.434 0.891 0.434 1.417-0.006 1.371-1.086 2.486-2.446 2.531-0.057-0.006-0.126-0.006-0.189 0-1.358-0.048-2.44-1.159-2.44-2.524 0-0.003 0-0.005 0-0.008v0c0-1.4 1.131-2.537 2.537-2.537M18.521 11.429c1.109 0 2 0.897 2 2 0 1.080-0.857 1.96-1.926 2-0.022-0.003-0.048-0.004-0.074-0.004s-0.052 0.002-0.077 0.005l0.003-0M11.519 17.463c-1.383 0.926-1.383 2.434 0 3.354 1.571 1.051 4.149 1.051 5.72 0 1.383-0.926 1.383-2.434 0-3.354-1.566-1.046-4.143-1.046-5.72 0zM19.623 20.571c0.411-0.086 0.8-0.251 1.12-0.497 0.891-0.669 0.891-1.771 0-2.44-0.314-0.24-0.697-0.4-1.103-0.491"></path>
</symbol>
<symbol id="icon-twitterr" viewBox="0 0 32 32">
<path fill="#fff" style="fill: var(--color3, #fff)" d="M22.763 13.892c0 3.812-3.102 6.902-6.928 6.902s-6.928-3.090-6.928-6.902c0-3.812 3.102-6.902 6.928-6.902s6.928 3.090 6.928 6.902z"></path>
<path fill="#17181c" style="fill: var(--color4, #17181c)" d="M19.299 11.866c-0.238 0.101-0.515 0.175-0.803 0.21l-0.015 0.001c0.294-0.166 0.519-0.426 0.625-0.74-0.26 0.148-0.562 0.261-0.882 0.321l-0.018 0.003c-0.265-0.262-0.629-0.424-1.030-0.424-0.002 0-0.005 0-0.007 0h0c-0.786 0-1.42 0.602-1.42 1.34 0 0.106 0.010 0.209 0.033 0.306-1.181-0.054-2.226-0.588-2.928-1.401-0.121 0.192-0.194 0.426-0.195 0.677v0c0 0.464 0.254 0.875 0.631 1.113-0.235-0.006-0.455-0.066-0.65-0.169l0.008 0.004v0.015c0 0.651 0.492 1.192 1.138 1.316-0.108 0.028-0.233 0.044-0.361 0.044-0.004 0-0.008-0-0.012-0h0.001c-0.091 0-0.182-0.005-0.269-0.023 0.184 0.531 0.706 0.92 1.327 0.934-0.484 0.357-1.091 0.571-1.749 0.571-0.004 0-0.008 0-0.012-0h0.001c-0.116 0-0.228-0.005-0.34-0.018 0.629 0.383 1.375 0.601 2.179 0.601 2.613 0 4.042-2.042 4.042-3.812 0-0.059-0.002-0.116-0.005-0.173 0.28-0.19 0.516-0.421 0.706-0.687l0.006-0.008z"></path>
</symbol>
<symbol id="icon-arrow" viewBox="0 0 41 32">
<path fill="#fff" style="fill: var(--color3, #fff)" d="M40.509 16.823c0.276-0.276 0.446-0.657 0.446-1.077s-0.17-0.802-0.446-1.077l-9.698-9.698c-0.274-0.265-0.647-0.428-1.059-0.428-0.842 0-1.524 0.682-1.524 1.524 0 0.411 0.163 0.785 0.428 1.059l-0-0 8.62 8.62-8.62 8.62c-0.265 0.274-0.428 0.647-0.428 1.059 0 0.842 0.682 1.524 1.524 1.524 0.411 0 0.785-0.163 1.059-0.428l-0 0 9.698-9.698zM39.432 14.222h-38.79v3.048h38.79v-3.048z"></path>
</symbol>
<symbol id="icon-check-in-out" viewBox="0 0 32 32">
<path fill="#313ef7" style="fill: var(--color1, #313ef7)" opacity="0.05" d="M32 16c0 8.837-7.163 16-16 16s-16-7.163-16-16c0-8.837 7.163-16 16-16s16 7.163 16 16z"></path>
<path fill="none" stroke="#030522" style="stroke: var(--color2, #030522)" stroke-linejoin="round" stroke-linecap="round" stroke-miterlimit="10" stroke-width="0.8571" d="M13.714 10.286v1.714M18.286 10.286v1.714M11.143 14.337h9.714M10.857 16.577v-2.577c0-1.714 0.857-2.857 2.857-2.857h4.571c2 0 2.857 1.143 2.857 2.857v4.857c0 1.714-0.857 2.857-2.857 2.857h-4.571c-2 0-2.857-1.143-2.857-2.857"></path>
<path fill="none" stroke="#030522" style="stroke: var(--color2, #030522)" stroke-linejoin="round" stroke-linecap="round" stroke-miterlimit="4" stroke-width="1.1429" d="M15.997 16.971h0.006M13.883 16.971h0.005M13.883 18.686h0.005"></path>
</symbol>
<symbol id="icon-customer-service" viewBox="0 0 33 32">
<path d="M30.374 13.322c-0.639-0.394-1.35-0.475-1.978-0.414v-0.658c0-6.738-5.514-12.25-12.25-12.25-6.738 0-12.251 5.514-12.251 12.25v0.658c-0.627-0.062-1.338 0.019-1.977 0.414-1.176 0.727-1.773 2.259-1.773 4.552 0 2.298 0.598 3.838 1.776 4.578 0.585 0.367 1.269 0.494 1.974 0.434v0.677c0 0.518 0.42 0.938 0.938 0.938h3.75c0.518 0 0.937-0.42 0.937-0.938v-11.312c0-0.518-0.419-0.938-0.937-0.938h-2.77c0.476-5.283 4.928-9.438 10.333-9.438s9.856 4.154 10.332 9.438h-2.77c-0.518 0-0.938 0.419-0.938 0.937v11.313c0 0.518 0.42 0.938 0.938 0.938h2.813v0.938c-0.002 1.552-1.26 2.81-2.813 2.812h-3.038c-0.399-1.101-1.435-1.873-2.651-1.874h-1.875c-1.552 0.002-2.811 1.26-2.813 2.812v0c0.002 1.553 1.261 2.811 2.813 2.813h1.875c1.222 0 2.264-0.784 2.651-1.875h3.037c2.584 0 4.688-2.102 4.688-4.688v-2.551c0.704 0.061 1.388-0.066 1.974-0.434 1.178-0.74 1.776-2.28 1.776-4.577 0-2.294-0.597-3.826-1.773-4.552zM3.896 21c-0.299 0.052-0.673 0.056-0.978-0.136-0.578-0.363-0.898-1.424-0.898-2.988 0-1.55 0.312-2.598 0.878-2.954 0.306-0.192 0.691-0.179 0.998-0.118v6.195zM7.646 13.188v9.438h-1.874v-9.438h1.875zM18.022 30.126h-1.875c-0.518-0-0.937-0.42-0.938-0.938v-0c0-0.517 0.421-0.938 0.938-0.938h1.874c0.518 0 0.938 0.421 0.938 0.938s-0.42 0.938-0.938 0.938zM26.522 22.626h-1.875v-9.438h1.875v9.438zM29.381 20.86c-0.304 0.194-0.682 0.19-0.984 0.137v-6.192c0.306-0.062 0.691-0.075 0.997 0.118 0.566 0.355 0.878 1.404 0.878 2.954 0 1.558-0.317 2.618-0.89 2.984z"></path>
</symbol>
<symbol id="icon-discount" viewBox="0 0 33 32">
<path d="M30.622 16.414c-0.061-0.121-0.097-0.263-0.097-0.414s0.036-0.293 0.099-0.42l-0.002 0.005 1.194-2.442c0.664-1.36 0.138-2.979-1.198-3.689l-2.4-1.274c-0.254-0.135-0.436-0.377-0.487-0.665l-0.001-0.006-0.47-2.677c-0.232-1.319-1.37-2.309-2.738-2.309-0.141 0-0.279 0.010-0.414 0.031l0.015-0.002-2.691 0.38c-0.040 0.006-0.087 0.010-0.134 0.010-0.254 0-0.485-0.101-0.654-0.266l0 0-1.954-1.89c-0.5-0.488-1.184-0.789-1.939-0.789s-1.439 0.301-1.94 0.79l0.001-0.001-1.954 1.89c-0.169 0.164-0.4 0.266-0.654 0.266-0.047 0-0.094-0.003-0.139-0.010l0.005 0.001-2.691-0.38c-0.12-0.018-0.259-0.029-0.4-0.029-1.368 0-2.506 0.99-2.735 2.292l-0.002 0.017-0.47 2.677c-0.050 0.288-0.228 0.533-0.487 0.67l-2.4 1.274c-0.89 0.475-1.486 1.398-1.486 2.46 0 0.448 0.106 0.871 0.294 1.245l-0.007-0.016 1.194 2.442c0.128 0.264 0.128 0.566 0 0.829l-1.194 2.442c-0.181 0.359-0.287 0.782-0.287 1.23 0 1.062 0.596 1.984 1.471 2.452l0.015 0.007 2.401 1.274c0.259 0.137 0.437 0.382 0.488 0.67l0.469 2.677c0.231 1.319 1.368 2.309 2.736 2.309 0.142 0 0.281-0.011 0.416-0.031l-0.015 0.002 2.691-0.381c0.29-0.042 0.578 0.052 0.788 0.256l1.954 1.89c0.5 0.487 1.185 0.788 1.939 0.788s1.439-0.301 1.94-0.789l-0.001 0.001 1.954-1.89c0.21-0.204 0.498-0.297 0.788-0.256l2.691 0.381c0.12 0.018 0.259 0.029 0.4 0.029 1.368 0 2.506-0.99 2.735-2.292l0.002-0.017 0.47-2.677c0.050-0.289 0.228-0.534 0.488-0.67l2.4-1.274c0.89-0.475 1.485-1.397 1.485-2.459 0-0.448-0.106-0.871-0.294-1.245l0.007 0.016-1.194-2.442zM29.753 20.914l-2.401 1.274c-0.75 0.401-1.287 1.117-1.438 1.966l-0.002 0.017-0.47 2.677c-0.079 0.446-0.463 0.781-0.926 0.781-0.048 0-0.095-0.004-0.14-0.010l0.005 0.001-2.691-0.381c-0.119-0.018-0.256-0.028-0.396-0.028-0.752 0-1.435 0.3-1.934 0.787l0.001-0.001-1.954 1.89c-0.368 0.355-0.944 0.355-1.312 0l-1.954-1.89c-0.498-0.486-1.181-0.786-1.933-0.786-0.14 0-0.278 0.010-0.412 0.030l0.015-0.002-2.691 0.381c-0.041 0.006-0.087 0.010-0.135 0.010-0.463 0-0.848-0.335-0.926-0.775l-0.001-0.006-0.47-2.677c-0.153-0.866-0.69-1.582-1.425-1.975l-0.015-0.007-2.4-1.274c-0.301-0.161-0.503-0.473-0.503-0.832 0-0.151 0.036-0.294 0.099-0.421l-0.002 0.005 1.194-2.442c0.18-0.357 0.285-0.779 0.285-1.225s-0.105-0.867-0.293-1.241l0.007 0.016-1.194-2.442c-0.061-0.121-0.097-0.264-0.097-0.416 0-0.359 0.201-0.671 0.498-0.83l0.005-0.002 2.401-1.274c0.75-0.401 1.287-1.117 1.438-1.966l0.002-0.017 0.47-2.677c0.088-0.504 0.554-0.842 1.062-0.771l2.691 0.381c0.119 0.018 0.257 0.029 0.396 0.029 0.752 0 1.434-0.3 1.934-0.786l-0.001 0.001 1.954-1.89c0.169-0.165 0.401-0.267 0.656-0.267s0.487 0.102 0.656 0.267l-0-0 1.954 1.89c0.499 0.486 1.181 0.785 1.933 0.785 0.14 0 0.278-0.010 0.412-0.030l-0.015 0.002 2.691-0.381c0.041-0.006 0.087-0.010 0.135-0.010 0.463 0 0.848 0.335 0.926 0.775l0.001 0.006 0.47 2.677c0.153 0.866 0.69 1.582 1.425 1.975l0.015 0.007 2.4 1.274c0.453 0.24 0.63 0.788 0.406 1.248l-1.194 2.442c-0.18 0.357-0.285 0.779-0.285 1.225s0.105 0.867 0.293 1.241l-0.007-0.016 1.194 2.442c0.225 0.46 0.047 1.008-0.406 1.248z"></path>
<path d="M23.494 9.257c-0.36-0.36-0.945-0.36-1.305 0l-12.182 12.181c-0.154 0.164-0.248 0.386-0.248 0.63 0 0.51 0.413 0.923 0.923 0.923 0.244 0 0.465-0.094 0.63-0.248l-0.001 0 12.181-12.18c0.36-0.36 0.36-0.945 0-1.306zM13.060 7.694c-1.868 0.002-3.382 1.516-3.384 3.384v0c0.002 1.868 1.516 3.382 3.384 3.384h0c1.868-0.002 3.382-1.516 3.384-3.384v-0c-0.002-1.868-1.516-3.382-3.384-3.384h-0zM13.060 12.616c-0.849-0.001-1.537-0.689-1.538-1.537v-0c0-0.848 0.69-1.538 1.538-1.538s1.538 0.69 1.538 1.538-0.69 1.538-1.538 1.538zM20.442 17.538c-1.868 0.002-3.382 1.516-3.384 3.384v0c0.002 1.868 1.516 3.382 3.384 3.384h0c1.868-0.002 3.382-1.516 3.384-3.384v-0c-0.002-1.868-1.516-3.382-3.384-3.384h-0zM20.442 22.459c-0.849-0.001-1.536-0.689-1.538-1.537v-0c0-0.848 0.69-1.538 1.538-1.538s1.538 0.69 1.538 1.538-0.69 1.538-1.538 1.538z"></path>
</symbol>
<symbol id="icon-facebook" viewBox="0 0 32 32">
<path fill="#fff" style="fill: var(--color3, #fff)" d="M22.763 13.892c0 3.812-3.102 6.902-6.928 6.902s-6.928-3.090-6.928-6.902c0-3.812 3.102-6.902 6.928-6.902s6.928 3.090 6.928 6.902z"></path>
<path fill="#17181c" style="fill: var(--color4, #17181c)" d="M16.274 16.518v-2.613h0.788l0.104-0.919h-0.893l0.001-0.461c0-0.24 0.024-0.368 0.393-0.368h0.493v-0.92h-0.788c-0.947 0-1.28 0.446-1.28 1.196v0.552h-0.591v0.92h0.591v2.576c0.214 0.042 0.459 0.066 0.711 0.066 0.166 0 0.329-0.010 0.49-0.031l-0.019 0.002z"></path>
</symbol>
<symbol id="icon-gude" viewBox="0 0 33 32">
<path d="M26.059 27.322c-0.302-0.002-0.553-0.216-0.612-0.5l-0.001-0.004c-0.008-0.037-0.012-0.079-0.012-0.122 0-0.302 0.214-0.553 0.498-0.611l0.004-0.001c0.037-0.008 0.080-0.012 0.123-0.012 0.129 0 0.249 0.040 0.348 0.107l-0.002-0.001c0.103 0.068 0.182 0.163 0.229 0.276l0.001 0.004c0.030 0.071 0.047 0.153 0.047 0.239 0 0.173-0.070 0.329-0.182 0.442l0-0c-0.056 0.058-0.124 0.104-0.199 0.135l-0.004 0.001c-0.070 0.030-0.152 0.048-0.238 0.048h-0zM17.342 19.996h-1.736c-0 0-0 0-0 0-0.345 0-0.624-0.279-0.624-0.624 0-0.044 0.005-0.087 0.013-0.128l-0.001 0.004 0.584-2.913h-2.664l-0.868 0.723c-0.107 0.090-0.247 0.144-0.399 0.144-0 0-0.001 0-0.001 0h-1.736c-0.345-0-0.624-0.28-0.624-0.625 0-0.083 0.016-0.163 0.046-0.235l-0.002 0.004 0.775-1.938-0.775-1.937c-0.028-0.069-0.045-0.148-0.045-0.232 0-0.345 0.28-0.626 0.625-0.626h1.736c0 0 0 0 0 0 0.153 0 0.292 0.055 0.401 0.146l-0.001-0.001 0.867 0.723h2.664l-0.584-2.913c-0.008-0.037-0.012-0.080-0.012-0.123 0-0.345 0.28-0.625 0.625-0.625 0 0 0 0 0 0h1.735c0.217 0 0.418 0.112 0.532 0.297l2.076 3.364h2.166c1.063 0.001 1.925 0.863 1.926 1.926v0c-0.001 1.064-0.863 1.926-1.927 1.927h-2.165l-2.076 3.364c-0.112 0.179-0.308 0.297-0.532 0.297-0 0-0 0-0 0v0zM16.37 18.746h0.624l2.076-3.363c0.112-0.18 0.308-0.297 0.532-0.298h2.514c0.36-0.018 0.645-0.314 0.645-0.677s-0.285-0.659-0.643-0.677l-0.002-0h-2.514c-0 0-0 0-0.001 0-0.223 0-0.419-0.117-0.53-0.293l-0.002-0.003-2.076-3.365h-0.624l0.584 2.913c0.008 0.037 0.012 0.080 0.012 0.123 0 0.345-0.279 0.625-0.624 0.626h-3.654c-0.153-0-0.292-0.055-0.401-0.146l0.001 0.001-0.868-0.723h-0.586l0.525 1.312c0.028 0.069 0.045 0.148 0.045 0.232s-0.016 0.163-0.046 0.236l0.002-0.004-0.525 1.313h0.586l0.868-0.722c0.107-0.090 0.247-0.145 0.4-0.146h3.654c0.345 0.001 0.624 0.281 0.624 0.626 0 0.043-0.004 0.086-0.013 0.126l0.001-0.004-0.584 2.914zM23.302 26.978h-13.279c-0.345 0-0.624-0.279-0.625-0.624v-3.844c0-0.346 0.28-0.626 0.625-0.626h13.279c0.345 0 0.625 0.28 0.625 0.626v3.843c0 0.346-0.28 0.625-0.625 0.625zM10.648 25.728h12.030v-2.594h-12.030v2.594z"></path>
<path d="M29.186 1.25h-2.502v-0.626c0-0.345-0.28-0.625-0.625-0.625h-20.145c-1.352 0.001-2.448 1.097-2.45 2.449v27.101c0.001 1.352 1.097 2.448 2.449 2.45h23.272c0.346 0 0.626-0.28 0.626-0.625v-29.499c0-0 0-0.001 0-0.001 0-0.345-0.28-0.625-0.625-0.625-0 0-0.001 0-0.001 0h0zM25.434 1.25v7.522l-1.761-0.83c-0.078-0.038-0.17-0.060-0.266-0.060s-0.188 0.022-0.27 0.061l0.004-0.002-1.766 0.832v-7.525h4.061zM28.562 30.75h-20.671v-25.354c0-0.345-0.28-0.625-0.625-0.625s-0.625 0.28-0.625 0.625v25.355h-0.728c-0.661 0-1.199-0.538-1.199-1.199v-27.102c0-0.662 0.538-1.2 1.2-1.2h14.21v8.509c0 0.345 0.28 0.625 0.626 0.625 0.096 0 0.188-0.022 0.269-0.061l-0.004 0.002 2.39-1.126 2.029 0.957v13.509c0 0.345 0.28 0.625 0.625 0.625s0.625-0.28 0.625-0.625v0-21.163h1.877v28.25z"></path>
</symbol>
<symbol id="icon-left" viewBox="0 0 19 32">
<path stroke-linejoin="miter" stroke-linecap="butt" stroke-miterlimit="4" stroke-width="2.9091" d="M17.334 1.455l-14.545 14.545 14.545 14.545"></path>
</symbol>
<symbol id="icon-linkedin" viewBox="0 0 32 32">
<path fill="#fff" style="fill: var(--color3, #fff)" d="M22.763 13.892c0 3.812-3.102 6.902-6.928 6.902s-6.928-3.090-6.928-6.902c0-3.812 3.102-6.902 6.928-6.902s6.928 3.090 6.928 6.902z"></path>
<path fill="#17181c" style="fill: var(--color4, #17181c)" d="M13.171 11.854c0-0.179 0.063-0.326 0.189-0.442s0.29-0.175 0.492-0.175c0.198 0 0.358 0.057 0.481 0.172 0.126 0.118 0.189 0.272 0.189 0.462 0 0.172-0.061 0.315-0.184 0.429-0.126 0.118-0.292 0.177-0.497 0.177h-0.005c-0.198 0-0.358-0.059-0.481-0.177s-0.183-0.266-0.183-0.445zM13.241 16.547v-3.583h1.199v3.583h-1.199zM15.104 16.547h1.199v-2.001c0-0.125 0.014-0.222 0.043-0.29 0.050-0.121 0.127-0.224 0.23-0.308s0.231-0.126 0.386-0.126c0.403 0 0.605 0.27 0.605 0.81v1.915h1.199v-2.054c0-0.529-0.126-0.931-0.378-1.204s-0.585-0.41-0.999-0.41c-0.465 0-0.826 0.199-1.086 0.595v0.011h-0.006l0.006-0.011v-0.51h-1.199c0.007 0.114 0.011 0.47 0.011 1.067s-0.004 1.436-0.011 2.515z"></path>
</symbol>
<symbol id="icon-checkbox" viewBox="0 0 34 32">
<path d="M30.341 3.556v24.889h-26.548v-24.889h26.548zM30.341 0h-26.548c-2.086 0-3.793 1.6-3.793 3.556v24.889c0 1.956 1.707 3.556 3.793 3.556h26.548c2.086 0 3.793-1.6 3.793-3.556v-24.889c0-1.956-1.707-3.556-3.793-3.556z"></path>
</symbol>
<symbol id="icon-check" viewBox="0 0 34 32">
<path fill="#fff" style="fill: var(--color3, #fff); stroke: var(--color3, #fff)" stroke="#fff" stroke-linejoin="miter" stroke-linecap="butt" stroke-miterlimit="4" stroke-width="0.4267" d="M8.442 16.537l-0.147-0.14-2.205 2.088 7.767 7.41 16.318-15.567-2.19-2.089-14.128 13.465-5.416-5.167z"></path>
</symbol>
</defs>
</svg>
