<svg xmlns="http://www.w3.org/2000/svg" width="96" height="97" fill="none"><g filter="url(#a)"><ellipse cx="48" cy="42.11" fill="#fff" rx="21" ry="20.923"/></g><path fill="#17181C" d="M58.5 35.968a9.399 9.399 0 0 1-2.48.641c.892-.503 1.573-1.292 1.893-2.244a8.924 8.924 0 0 1-2.73.983 4.439 4.439 0 0 0-3.144-1.285c-2.384 0-4.303 1.824-4.303 4.061 0 .322.03.632.1.927-3.58-.165-6.746-1.783-8.874-4.248a3.914 3.914 0 0 0-.59 2.053c0 1.406.769 2.653 1.913 3.374a4.45 4.45 0 0 1-1.945-.5v.045c0 1.973 1.492 3.612 3.45 3.99a4.54 4.54 0 0 1-1.13.134c-.275 0-.553-.015-.815-.07.558 1.609 2.141 2.79 4.023 2.83a8.987 8.987 0 0 1-5.338 1.731c-.353 0-.691-.014-1.03-.055 1.907 1.16 4.167 1.822 6.605 1.822 7.922 0 12.253-6.19 12.253-11.556 0-.18-.007-.353-.016-.525a8.337 8.337 0 0 0 2.158-2.108Z"/><defs><filter id="a" width="96" height="95.846" x="0" y=".188" color-interpolation-filters="sRGB" filterUnits="userSpaceOnUse"><feFlood flood-opacity="0" result="BackgroundImageFix"/><feColorMatrix in="SourceAlpha" result="hardAlpha" values="0 0 0 0 0 0 0 0 0 0 0 0 0 0 0 0 0 0 127 0"/><feOffset dy="6"/><feGaussianBlur stdDeviation="13.5"/><feComposite in2="hardAlpha" operator="out"/><feColorMatrix values="0 0 0 0 0.192031 0 0 0 0 0.192031 0 0 0 0 0.192031 0 0 0 0.17 0"/><feBlend in2="BackgroundImageFix" result="effect1_dropShadow_2_13545"/><feBlend in="SourceGraphic" in2="effect1_dropShadow_2_13545" result="shape"/></filter></defs></svg>